HIERARCHY
ROOT root
{
	OFFSET 0.000000 0.000000 0.000000
	CHANNELS 6 Xposition Yposition Zposition Zrotation Yrotation Xrotation
	JOINT lhip
	{
		OFFSET 0.058581 -0.082280 -0.017664
		CHANNELS 3 Zrotation Yrotation Xrotation
		JOINT lknee
		{
			OFFSET 0.043451 -0.386469 0.008037
			CHANNELS 3 Zrotation Yrotation Xrotation
			JOINT lankle
			{
				OFFSET -0.014790 -0.426874 -0.037428
				CHANNELS 3 Zrotation Yrotation Xrotation
				JOINT ltoe
				{
					OFFSET 0.041054 -0.060286 0.122042
					CHANNELS 3 Zrotation Yrotation Xrotation
					End Site
					{
						OFFSET 0.000000 0.000000 0.000000
					}
				}
			}
		}
	}
	JOINT rhip
	{
		OFFSET -0.060310 -0.090513 -0.013543
		CHANNELS 3 Zrotation Yrotation Xrotation
		JOINT rknee
		{
			OFFSET -0.043257 -0.383688 -0.004843
			CHANNELS 3 Zrotation Yrotation Xrotation
			JOINT rankle
			{
				OFFSET 0.019056 -0.420046 -0.034562
				CHANNELS 3 Zrotation Yrotation Xrotation
				JOINT rtoe
				{
					OFFSET -0.034840 -0.062106 0.130323
					CHANNELS 3 Zrotation Yrotation Xrotation
					End Site
					{
						OFFSET 0.000000 0.000000 0.000000
					}
				}
			}
		}
	}
	JOINT lowerback
	{
		OFFSET 0.004439 0.124404 -0.038385
		CHANNELS 3 Zrotation Yrotation Xrotation
		JOINT upperback
		{
			OFFSET 0.004488 0.137956 0.026820
			CHANNELS 3 Zrotation Yrotation Xrotation
			JOINT chest
			{
				OFFSET -0.002265 0.056032 0.002855
				CHANNELS 3 Zrotation Yrotation Xrotation
				JOINT lowerneck
				{
					OFFSET -0.013390 0.211636 -0.033468
					CHANNELS 3 Zrotation Yrotation Xrotation
					JOINT upperneck
					{
						OFFSET 0.010113 0.088937 0.050410
						CHANNELS 3 Zrotation Yrotation Xrotation
						End Site
						{
							OFFSET 0.000000 0.000000 0.000000
						}
					}
				}
				JOINT lclavicle
				{
					OFFSET 0.071702 0.114000 -0.018898
					CHANNELS 3 Zrotation Yrotation Xrotation
					JOINT lshoulder
					{
						OFFSET 0.122921 0.045205 -0.019046
						CHANNELS 3 Zrotation Yrotation Xrotation
						JOINT lelbow
						{
							OFFSET 0.255332 -0.015649 -0.022946
							CHANNELS 3 Zrotation Yrotation Xrotation
							JOINT lwrist
							{
								OFFSET 0.265709 0.012698 -0.007375
								CHANNELS 3 Zrotation Yrotation Xrotation
								End Site
								{
									OFFSET 0.000000 0.000000 0.000000
								}
							}
						}
					}
				}
				JOINT rclavicle
				{
					OFFSET -0.082954 0.112472 -0.023707
					CHANNELS 3 Zrotation Yrotation Xrotation
					JOINT rshoulder
					{
						OFFSET -0.113228 0.046853 -0.008472
						CHANNELS 3 Zrotation Yrotation Xrotation
						JOINT relbow
						{
							OFFSET -0.260127 -0.014369 -0.031269
							CHANNELS 3 Zrotation Yrotation Xrotation
							JOINT rwrist
							{
								OFFSET -0.269108 0.006794 -0.006027
								CHANNELS 3 Zrotation Yrotation Xrotation
								End Site
								{
									OFFSET 0.000000 0.000000 0.000000
								}
							}
						}
					}
				}
			}
		}
	}
}
MOTION
Frames: 17
Frame Time: 0.033333
-0.265224 -0.144122 0.955911 84.585156 -2.082655 75.575790 15.459882 -5.223553 -5.822951 -1.081891 -12.050521 27.497810 -1.329280 13.278523 -10.694675 0.000000 -0.000000 0.000000 -7.938368 -0.440568 -5.655455 0.089532 7.662595 35.287528 2.180665 -5.309812 -24.737194 0.000000 -0.000000 0.000000 -4.322854 4.058624 18.341246 -1.328305 -0.273128 3.769711 0.021506 -1.149765 2.074078 -4.071651 15.472974 -1.021139 -3.553006 11.075431 10.738259 -20.580069 -1.530365 2.694667 -52.743163 -7.770624 10.971407 7.209957 -47.329139 7.257847 12.325964 -7.258491 -10.780985 22.938801 5.182912 2.177873 47.095830 3.202916 12.659942 -11.694586 35.163394 2.001718 -0.319309 6.138089 -4.371009 
-0.274112 -0.181147 0.962648 87.179904 -1.438083 75.308978 13.332735 -2.292528 -7.529580 -1.381644 -5.765424 34.720336 -0.237900 15.335298 -14.791986 0.000000 -0.000000 0.000000 -5.956348 -1.354132 -4.964336 1.120315 5.588271 34.474627 2.469467 -5.627518 -23.753378 0.000000 -0.000000 0.000000 -3.770031 3.895225 19.501310 -1.073675 -1.065830 2.985796 -0.043382 -1.337118 2.767810 -4.316501 14.194503 -1.476173 -3.358814 11.036174 10.713859 -19.560047 -3.032101 2.565056 -54.268867 -8.813302 11.186727 6.048422 -43.760038 10.472597 13.212475 -6.666796 -12.572673 21.834277 4.911212 1.474696 48.506856 2.827672 11.880621 -11.729479 32.970325 2.344445 -0.302812 5.717122 -4.132558 
-0.283804 -0.216172 0.971345 89.509795 -0.211097 75.558352 10.517515 -0.003888 -8.946267 -1.544492 -0.300131 45.135644 -0.261344 15.830986 -16.312299 0.000000 -0.000000 0.000000 -3.358664 -2.979554 -4.050202 0.897617 2.079219 31.611332 2.373592 -5.588928 -21.693484 0.000000 -0.000000 0.000000 -3.027497 3.623043 20.457857 -0.434530 -2.194510 1.343530 0.212050 -2.145209 3.318057 -4.534168 13.224363 -1.292067 -3.228926 12.232843 10.379563 -19.418339 -3.833459 2.711354 -55.283665 -9.535343 10.363466 4.684125 -40.204380 13.413276 14.067656 -5.979042 -10.724905 20.983574 4.054778 0.843256 48.963336 2.033592 11.120936 -10.929680 32.617308 3.513380 -0.627657 5.631155 -4.264248 
-0.293424 -0.248989 0.979407 91.486089 1.560174 76.358609 7.167009 2.068935 -9.038160 -2.536064 2.953053 56.028865 -1.114039 14.339514 -17.402596 0.000000 -0.000000 0.000000 -0.401701 -3.443251 -4.919667 1.192670 -2.166550 30.505852 2.850247 -5.532705 -18.972040 0.000000 -0.000000 0.000000 -2.470421 2.415555 19.998571 0.600222 -3.279917 0.841195 0.624834 -2.612638 3.425845 -4.564697 12.511211 -0.213132 -3.310285 13.248900 8.986454 -19.201030 -4.221052 2.949655 -56.902725 -9.459089 9.756435 4.750673 -37.214109 13.611416 13.484352 -6.791675 -9.419329 20.926057 3.211912 0.578158 48.653808 1.082721 10.649321 -10.849177 33.131284 3.924820 -1.040381 6.069650 -5.855628 
-0.303584 -0.280443 0.985378 93.830398 4.080463 76.908515 4.216729 3.810247 -6.588534 -5.353284 4.743893 63.242812 -4.862412 8.831294 -9.918335 0.000000 -0.000000 0.000000 2.407174 -2.949722 -6.283459 2.338714 -5.522903 31.166414 3.569167 -3.531094 -15.402523 0.000000 -0.000000 0.000000 -1.306026 0.073682 20.270826 1.875803 -4.630871 0.489573 0.904059 -3.644423 3.434953 -4.842917 12.947717 -0.521508 -3.986820 14.810129 7.370645 -19.421809 -3.896293 2.598556 -58.112514 -9.415640 8.906658 5.877710 -34.205304 11.783237 12.679299 -7.361257 -7.987208 21.053122 2.174431 -0.027062 48.450023 0.900713 10.272390 -10.890872 33.771276 4.251911 -1.247437 6.241776 -6.892397 
-0.313623 -0.309886 0.986370 95.203402 6.073369 77.213272 1.002047 6.875211 -1.623453 -8.561536 4.478548 62.793473 -11.218111 1.080079 0.532534 0.000000 -0.000000 0.000000 4.190027 -1.726318 -8.177868 3.093414 -5.369336 33.506797 6.412563 3.890525 -12.207590 0.000000 -0.000000 0.000000 -0.240321 -1.613336 20.395839 2.780032 -5.612647 1.717733 1.301125 -4.008914 2.088437 -4.085433 14.692687 -0.329493 -5.284229 14.471410 6.605721 -19.119273 -5.340631 1.386892 -60.120095 -8.640356 8.391982 8.179980 -29.472425 7.488860 9.282280 -10.019951 -3.686752 21.203210 1.779065 -1.434460 48.524340 -1.353690 8.580993 -10.720121 34.681048 3.281057 -1.241201 6.492194 -6.347950 
-0.322832 -0.339378 0.981539 95.718900 8.479448 78.195581 -0.512553 9.590255 5.098532 -11.146772 4.052255 52.668386 -12.843922 1.206637 0.396996 0.000000 -0.000000 0.000000 6.469533 1.163795 -9.765343 6.053953 -1.099243 33.900323 9.587141 10.729855 -10.091636 0.000000 -0.000000 0.000000 1.603804 -3.854627 19.901658 3.324634 -5.786047 1.564019 1.301139 -4.093837 2.181093 -4.065878 15.838895 -0.898505 -6.054041 14.837900 5.494473 -20.145214 -5.344721 -0.317964 -60.106849 -8.541905 7.986996 9.060286 -25.724060 3.420161 7.224441 -10.408324 -0.881740 21.400011 0.711159 -1.704868 48.825481 -1.379996 8.473449 -10.733997 33.119123 2.434227 -2.708240 6.766651 -5.992561 
-0.334884 -0.369267 0.972113 97.783433 10.747369 80.672470 -2.102672 10.512789 10.264610 -9.380238 4.385070 37.653526 -11.119013 7.365571 0.744789 0.000000 -0.000000 0.000000 8.231669 3.861285 -12.584463 9.006270 0.459614 32.865730 10.603866 14.194242 -10.691571 0.000000 -0.000000 0.000000 2.749506 -5.988463 17.959456 4.289437 -6.019509 1.800614 1.805312 -4.627783 2.189133 -3.954803 16.830168 -1.889135 -6.885669 15.078373 5.266310 -20.788154 -6.179123 -1.375172 -60.042457 -9.499542 9.006718 9.217077 -21.391016 -1.811674 9.554092 -10.077071 1.288546 21.922573 0.203006 -1.961502 48.325591 -2.077011 9.604784 -10.482528 31.051148 1.237932 -5.340458 6.552174 -5.725382 
-0.353029 -0.402888 0.962057 102.313431 12.670913 83.986533 -2.853464 11.464061 12.781320 -7.083438 0.080207 24.976249 -8.754948 8.126915 1.698033 0.000000 -0.000000 0.000000 10.044241 4.296320 -17.149899 10.160116 -3.536806 32.153927 9.159000 12.405059 -11.457929 0.000000 -0.000000 0.000000 2.609451 -8.063262 17.241189 5.505004 -6.649327 1.032206 2.975858 -5.412137 1.896138 -3.258250 17.579227 -3.289707 -6.818434 14.685984 5.176108 -20.088666 -7.134702 -1.492387 -60.725007 -11.807977 9.756861 9.490050 -17.673362 -3.576539 10.670127 -9.479891 -0.165622 22.579442 -0.469563 -2.059242 48.337430 -2.489849 9.632651 -9.624229 28.549296 1.855813 -5.221438 6.448532 -5.409927 
-0.373339 -0.436128 0.952292 107.168345 13.553770 85.382262 -3.427787 9.243511 13.698244 -5.541677 -4.424551 22.303302 -1.491693 11.942642 -8.136883 0.000000 -0.000000 0.000000 9.753631 2.426298 -22.457556 12.418324 -10.621491 35.186633 9.653087 7.694254 -8.350507 0.000000 -0.000000 0.000000 1.474573 -9.003927 19.564814 6.294657 -7.509455 -0.801520 3.882006 -6.621300 3.158464 -3.127374 16.386526 -5.509380 -5.380384 14.796666 3.981903 -18.010161 -7.417140 -0.854462 -61.085583 -15.274324 9.327527 8.907701 -17.332215 -1.116188 12.496761 -7.927644 -4.190472 22.678953 -0.972104 -1.488516 50.951491 -1.045058 10.399137 -11.109190 25.122241 2.216617 -1.431587 7.328911 -5.066344 
-0.392544 -0.465262 0.946245 109.644701 12.931808 84.572580 -2.748933 9.078168 15.330430 -5.731482 -8.457696 20.416758 1.280681 12.618064 -13.492055 0.000000 -0.000000 0.000000 7.908029 0.524326 -26.081926 11.540582 -16.035877 40.193326 12.631991 3.666516 -6.249823 0.000000 -0.000000 0.000000 -0.309692 -8.505931 23.169681 5.914122 -7.594126 -0.315447 4.483893 -6.823585 3.171488 -3.006885 15.911394 -7.337790 -4.526251 13.084516 2.156554 -16.297498 -9.318791 -0.498668 -59.903737 -17.218384 8.359388 8.950787 -18.659597 -1.139077 12.193548 -7.803261 -4.164041 23.118243 0.580843 -1.608359 53.526641 -2.016006 10.378240 -11.894498 23.643076 1.694393 0.004943 7.035151 -2.271700 
-0.404913 -0.486855 0.942053 111.230093 11.073658 83.480693 -2.505283 9.360025 16.791473 -6.877905 -11.514927 19.495161 2.302778 11.917063 -16.572541 0.000000 -0.000000 0.000000 4.807561 0.197168 -29.178739 8.240626 -16.076798 48.582769 13.383993 0.287958 -8.537214 0.000000 -0.000000 0.000000 -2.113763 -8.766747 25.023252 4.847618 -7.186469 0.591586 3.714956 -6.764239 3.551539 -2.925179 15.413743 -7.435696 -3.967897 11.023180 1.191907 -15.614650 -10.313722 -0.057339 -57.244116 -18.210804 8.004799 8.279930 -20.242651 -0.013221 11.963015 -8.606502 -3.775604 23.563727 1.831704 -1.321130 55.453540 -2.804633 11.589369 -11.629252 23.757833 2.462214 1.818808 6.632040 -0.234427 
-0.414160 -0.504305 0.944552 112.822349 10.424576 83.173520 -2.087573 8.110650 15.843318 -7.671310 -12.396572 21.048603 2.610805 12.886896 -18.016435 0.000000 -0.000000 0.000000 3.545450 1.484482 -30.213235 5.130977 -12.304965 53.958935 7.101876 -3.614323 -14.663905 0.000000 -0.000000 0.000000 -1.762746 -8.896061 25.600769 4.231430 -6.875532 1.081926 2.666911 -6.587195 3.696216 -3.164015 14.555676 -7.320296 -3.682801 9.698153 1.802778 -16.271889 -11.424012 -0.326590 -54.927423 -18.406276 8.427698 7.366640 -21.290116 2.198832 13.965909 -9.099223 -3.223752 23.595077 2.820128 -1.432972 55.725639 -3.851579 12.850201 -9.886311 24.308445 5.768313 1.838195 6.895466 -0.848182 
-0.418771 -0.516694 0.952510 113.879622 10.003398 82.988783 -2.270126 6.695879 14.663847 -7.823354 -12.145520 22.550116 1.970496 12.890985 -16.864093 0.000000 -0.000000 0.000000 2.033250 4.536648 -28.542632 3.801954 -8.580111 56.047519 7.603922 -5.063638 -14.620123 0.000000 -0.000000 0.000000 -1.225912 -9.119243 25.660473 3.968036 -6.359879 1.323605 1.784046 -6.364484 3.813078 -3.272996 13.635787 -6.578451 -3.947529 9.271343 2.676301 -17.204146 -11.886971 0.101087 -53.607219 -18.731080 8.943377 6.466917 -21.357387 3.810955 12.115504 -9.199336 -3.691176 23.540562 3.216093 -1.352630 54.948804 -4.271644 14.632226 -8.917322 25.565368 8.413863 3.527102 6.550587 -0.515986 
-0.421220 -0.527407 0.963432 115.344241 9.963079 83.963963 -1.680009 6.308481 12.554293 -7.547062 -12.221536 23.667976 1.015715 11.788434 -14.905748 0.000000 -0.000000 0.000000 1.200425 7.026233 -26.090217 4.770863 -4.527554 54.834149 8.279192 -2.432174 -10.183937 0.000000 -0.000000 0.000000 -0.861404 -9.515040 24.678812 4.232913 -6.249075 1.505319 1.791366 -5.904836 3.322790 -3.771452 12.568973 -5.073384 -3.772194 9.343655 3.071246 -17.884092 -12.711174 0.871319 -54.051729 -18.608066 9.567220 6.692159 -20.277272 3.144932 11.888499 -9.492474 -2.965454 22.789775 3.692459 -0.934464 53.696082 -4.335307 15.247893 -7.302904 26.349131 10.342176 3.651975 7.040004 -0.807607 
-0.419847 -0.535296 0.974093 116.583564 9.710143 85.088651 -1.251330 4.995670 11.234490 -7.744634 -11.523736 23.424159 -0.311568 10.858282 -11.767357 0.000000 -0.000000 0.000000 1.304247 8.566986 -22.056882 5.876488 -0.286832 51.234876 8.673339 -0.936896 -8.609619 0.000000 -0.000000 0.000000 -0.555403 -9.139730 22.587768 4.629146 -6.794141 2.088025 1.895923 -5.926455 3.094744 -3.938929 12.240257 -4.482456 -3.927389 9.669025 4.663101 -17.925752 -12.640124 0.869044 -55.670814 -17.990503 10.399026 7.437899 -19.401638 3.849115 8.985692 -9.090900 -2.395238 22.121924 3.583781 -0.859115 52.332148 -3.851526 15.672477 -7.092567 27.481173 11.223201 6.594236 6.607949 -2.604703 
-0.416591 -0.541635 0.982135 117.219947 9.034386 87.047131 -1.234640 4.013524 9.320880 -7.956293 -10.935705 22.895844 -0.803221 10.583204 -10.764642 0.000000 -0.000000 0.000000 1.688708 8.843453 -18.080521 5.806914 4.235689 45.193006 9.861207 0.583516 -10.155879 0.000000 -0.000000 0.000000 -0.533393 -8.052181 19.770115 5.133538 -7.452743 1.321763 1.916676 -5.971432 3.480623 -4.072622 12.801913 -3.942186 -4.059826 9.358420 5.973187 -16.729682 -12.515188 0.048675 -56.123232 -19.412787 12.099249 2.170380 -13.555804 5.480751 12.255354 -10.144458 -2.904586 21.607393 2.815195 -1.397487 50.952051 -2.667392 16.318732 -6.376680 26.805186 10.723326 3.024640 7.231100 -3.169645 
